<?xml version="1.0" encoding="utf-8"?>
<!-- Generator: Adobe Illustrator 21.1.0, SVG Export Plug-In . SVG Version: 6.00 Build 0)  -->
<svg version="1.1" id="Layer_1" xmlns="http://www.w3.org/2000/svg" xmlns:xlink="http://www.w3.org/1999/xlink" x="0px" y="0px"
	 viewBox="0 0 630 628" style="enable-background:new 0 0 630 628;" xml:space="preserve">
<style type="text/css">
	.st0{fill:#826C63;}
</style>
<g id="Layer_1_1_">
	<path class="st0" d="M7.7,315.1C7.8,166.8,114.3,38.6,260.1,13.5C361.3-3.9,450,23.4,525.8,92.6c5,4.6,5,4.7,0.1,9.6
		c-19,19.2-38,38.3-56.9,57.7c-2.6,2.6-3.9,2.7-6.6,0.1c-38.2-35.9-83.5-55.7-136-58.7c-108.5-6.2-204.8,70.4-223,177.2
		c-19.1,112,49.9,218.9,160.2,245.2c75.3,18,142.1-0.7,199.2-53.1c2.8-2.6,4.1-2.7,6.9,0c19.5,19.6,39.2,39,59,58.3
		c3,2.9,2.5,4.3-0.2,6.8c-48.6,46.4-106,74.8-172.7,83.9C221.6,638,91.9,566.4,35.3,442.9C17.2,403.3,7.6,359.2,7.7,315.1z"/>
</g>
</svg>
