<?xml version="1.0" encoding="utf-8"?>
<!-- Generator: Adobe Illustrator 21.1.0, SVG Export Plug-In . SVG Version: 6.00 Build 0)  -->
<svg version="1.1" id="Layer_1" xmlns="http://www.w3.org/2000/svg" xmlns:xlink="http://www.w3.org/1999/xlink" x="0px" y="0px"
	 viewBox="0 0 630 628" style="enable-background:new 0 0 630 628;" xml:space="preserve">
<style type="text/css">
	.st0{fill:#826C63;}
	.st1{enable-background:new    ;}
	.st2{fill:#FF0303;stroke:#FF4200;stroke-width:20;stroke-miterlimit:10;}
	.st3{fill:#B7B7B7;}
</style>
<g id="Layer_1_1_">
	<path class="st0" d="M7.7,315.1C7.8,166.8,114.3,38.6,260.1,13.5C361.3-3.9,450,23.4,525.8,92.6c5,4.6,5,4.7,0.1,9.6
		c-19,19.2-38,38.3-56.9,57.7c-2.6,2.6-3.9,2.7-6.6,0.1c-38.2-35.9-83.5-55.7-136-58.7c-108.5-6.2-204.8,70.4-223,177.2
		c-19.1,112,49.9,218.9,160.2,245.2c75.3,18,142.1-0.7,199.2-53.1c2.8-2.6,4.1-2.7,6.9,0c19.5,19.6,39.2,39,59,58.3
		c3,2.9,2.5,4.3-0.2,6.8c-48.6,46.4-106,74.8-172.7,83.9C221.6,638,91.9,566.4,35.3,442.9C17.2,403.3,7.6,359.2,7.7,315.1z"/>
</g>
<g class="st1">
	<path class="st2" d="M214.5,217.9l98.2,99.6l98.2-99.6h13.4L319,323.7l115.4,115.8H421L312.7,329.6L204.5,439.5h-13.4l115.4-115.8
		L201.1,217.9H214.5z"/>
</g>
<g id="Layer_2">
	<g>
		<path class="st3" d="M450.7,314.1c2.1,0.5,4.2,0.9,6.2,1.4c8.4,2.1,15.6,6.2,21.6,12.3c13.8,13.9,27.6,27.8,41.2,41.8
			c7.9,8.1,14,17.5,15.9,28.9c2.5,14.1-2.6,25.7-12.7,35.3c-4.8,4.5-12.3,3.8-16.9-1.1c-4.4-4.7-4.6-12.2,0-16.7
			c6.8-6.7,7.1-13.5,1.9-21.3c-2.8-4.3-6.3-8.1-9.9-11.8c-12.2-12.5-24.5-25-36.9-37.3c-6.8-6.7-15.1-8.6-23.9-4.9
			c-9,3.7-14.1,10.9-15.2,20.7c-0.5,4.8,1.2,9.1,4.5,12.5c4.6,4.8,9.4,9.4,13.9,14.4c4.4,5,3.8,12.3-1,16.9
			c-4.3,4.1-11.2,4.9-15.5,1c-7.5-6.7-15-13.5-20.5-22.1c-3.2-4.9-5.1-10.4-5.8-16.3c-0.1-0.6-0.3-1.1-0.4-1.7c0-2.7,0-5.3,0-8
			c0.2-0.6,0.4-1.3,0.5-1.9c2.7-19.1,18.1-36.1,36.9-40.6c1.9-0.5,3.8-0.9,5.7-1.3C443.7,314.1,447.2,314.1,450.7,314.1z"/>
		<path class="st3" d="M544.8,514.3c-1.9-0.4-3.9-0.8-5.8-1.3c-8-1.9-15.2-5.6-21-11.4c-14.1-14.1-28.1-28.2-41.9-42.6
			c-7.7-8.1-13.1-17.6-15.3-28.7c-2.6-13.3,1-24.9,10.4-34.6c4.9-5.1,12.4-5.3,17.5-0.6c5,4.7,5.4,12.3,0.6,17.5
			c-5.1,5.4-5.5,11.3-2.8,17.8c1.1,2.7,2.5,5.3,4.3,7.5c4.4,5.2,9,10.3,13.8,15.1c9.8,10,19.7,19.9,29.5,29.8
			c8.8,8.8,22.3,9.1,31.2,0.5c8.8-8.5,9.1-22.8,0.6-31.7c-3.3-3.4-6.7-6.8-10-10.2c-3.6-3.7-4.9-8.1-3.2-13.1
			c1.7-4.9,5.3-7.5,10.3-8.3c3.2-0.5,6.4,0.2,8.6,2.4c6.5,6.3,13.5,12.2,18.3,20.1c3.5,5.7,5.6,11.9,6.4,18.5
			c0.1,0.5,0.3,0.9,0.5,1.4c0,3.3,0,6.7,0,10c-0.2,0.4-0.4,0.9-0.5,1.3c-2.8,19.4-16.8,34.9-35.8,39.4c-1.7,0.4-3.5,0.8-5.2,1.2
			C551.8,514.3,548.3,514.3,544.8,514.3z"/>
	</g>
</g>
<g id="Layer_3">
	<g>
		<path class="st3" d="M440.4,388.1c-4.4-5-9.3-9.5-13.9-14.4c-3.3-3.5-5-7.7-4.5-12.5c0.2-1.6,0.5-3.1,0.8-4.5
			c-4.3-3.4-6.4-3-11.6-3.6c-1.5-0.1-7.4,0.2-9.2,1.1c-2.2,1-2.1,1-3.3,2.1c0,0.2-1.7,1.4-1.7,1.5c0,2.7,0,5.3,0,8
			c0.1,0.6,0.4,1.1,0.4,1.7c0.7,5.9,2.6,11.4,5.8,16.3c5.6,8.5,13.1,15.3,20.5,22.1c4.4,3.9,11.2,3.1,15.5-1
			C444.2,400.4,444.9,393.1,440.4,388.1z"/>
		<path class="st3" d="M449.6,339c4.2,0.8,8.1,2.9,11.6,6.4c12.4,12.3,24.7,24.8,36.9,37.3c3.6,3.7,7.1,7.6,9.9,11.8
			c5.2,7.8,4.9,14.7-1.9,21.3c-4.6,4.5-4.4,12.1,0,16.7c4.6,4.8,12.1,5.6,16.9,1.1c10.2-9.5,15.2-21.2,12.7-35.3
			c-2-11.4-8-20.7-15.9-28.9c-13.6-14-27.5-27.9-41.2-41.8c-6.1-6.1-13.3-10.2-21.6-12.3c-1.7-0.4-3.5-0.8-5.2-1.2
			c0.1,0.5,0,1.1-0.1,1.6c0,0.3,0,0.5,0,0.8"/>
		<path class="st3" d="M544.8,514.2c-1.9-0.4-3.9-0.8-5.8-1.3c-8-1.9-15.2-5.6-21-11.4c-14.1-14.1-28.1-28.2-41.9-42.6
			c-7.7-8.1-13.1-17.6-15.3-28.7c-2.6-13.3,1-24.9,10.4-34.6c4.9-5.1,12.4-5.3,17.5-0.6c5,4.7,5.4,12.3,0.6,17.5
			c-5.1,5.4-5.5,11.3-2.8,17.8c1.1,2.7,2.5,5.3,4.3,7.5c4.4,5.2,9,10.3,13.8,15.1c9.8,10,19.7,19.9,29.5,29.8
			c8.8,8.8,22.3,9.1,31.2,0.5c8.8-8.5,9.1-22.8,0.6-31.7c-3.3-3.4-6.7-6.8-10-10.2c-3.6-3.7-4.9-8.1-3.2-13.1
			c1.7-4.9,5.3-7.5,10.3-8.3c3.2-0.5,6.4,0.2,8.6,2.4c6.5,6.3,13.5,12.2,18.3,20.1c3.5,5.7,5.6,11.9,6.4,18.5
			c0.1,0.5,0.3,0.9,0.5,1.4c0,3.3,0,6.7,0,10c-0.2,0.4-0.4,0.9-0.5,1.3c-2.8,19.4-16.8,34.9-35.8,39.4c-1.7,0.4-3.5,0.8-5.2,1.2
			C551.8,514.2,548.3,514.2,544.8,514.2z"/>
	</g>
</g>
</svg>
